<svg id="visual" viewBox="0 0 960 540" width="960" height="540" xmlns="http://www.w3.org/2000/svg" xmlns:xlink="http://www.w3.org/1999/xlink" version="1.1"><rect x="0" y="0" width="960" height="540" fill="#f3f4f6"></rect><path d="M0 375L22.8 366C45.7 357 91.3 339 137 337.5C182.7 336 228.3 351 274 356.3C319.7 361.7 365.3 357.3 411.2 353.8C457 350.3 503 347.7 548.8 354.8C594.7 362 640.3 379 686 384.5C731.7 390 777.3 384 823 376.3C868.7 368.7 914.3 359.3 937.2 354.7L960 350L960 541L937.2 541C914.3 541 868.7 541 823 541C777.3 541 731.7 541 686 541C640.3 541 594.7 541 548.8 541C503 541 457 541 411.2 541C365.3 541 319.7 541 274 541C228.3 541 182.7 541 137 541C91.3 541 45.7 541 22.8 541L0 541Z" fill="#3e3148"></path><path d="M0 407L22.8 401.5C45.7 396 91.3 385 137 377.7C182.7 370.3 228.3 366.7 274 371.3C319.7 376 365.3 389 411.2 391.2C457 393.3 503 384.7 548.8 388C594.7 391.3 640.3 406.7 686 407.5C731.7 408.3 777.3 394.7 823 390.5C868.7 386.3 914.3 391.7 937.2 394.3L960 397L960 541L937.2 541C914.3 541 868.7 541 823 541C777.3 541 731.7 541 686 541C640.3 541 594.7 541 548.8 541C503 541 457 541 411.2 541C365.3 541 319.7 541 274 541C228.3 541 182.7 541 137 541C91.3 541 45.7 541 22.8 541L0 541Z" fill="#342942"></path><path d="M0 435L22.8 428.8C45.7 422.7 91.3 410.3 137 412.5C182.7 414.7 228.3 431.3 274 440C319.7 448.7 365.3 449.3 411.2 450.7C457 452 503 454 548.8 446.7C594.7 439.3 640.3 422.7 686 415.2C731.7 407.7 777.3 409.3 823 412.5C868.7 415.7 914.3 420.3 937.2 422.7L960 425L960 541L937.2 541C914.3 541 868.7 541 823 541C777.3 541 731.7 541 686 541C640.3 541 594.7 541 548.8 541C503 541 457 541 411.2 541C365.3 541 319.7 541 274 541C228.3 541 182.7 541 137 541C91.3 541 45.7 541 22.8 541L0 541Z" fill="#2a223c"></path><path d="M0 471L22.8 472.8C45.7 474.7 91.3 478.3 137 476C182.7 473.7 228.3 465.3 274 460.7C319.7 456 365.3 455 411.2 454.5C457 454 503 454 548.8 455.7C594.7 457.3 640.3 460.7 686 459.8C731.7 459 777.3 454 823 452.2C868.7 450.3 914.3 451.7 937.2 452.3L960 453L960 541L937.2 541C914.3 541 868.7 541 823 541C777.3 541 731.7 541 686 541C640.3 541 594.7 541 548.8 541C503 541 457 541 411.2 541C365.3 541 319.7 541 274 541C228.3 541 182.7 541 137 541C91.3 541 45.7 541 22.8 541L0 541Z" fill="#1f1b36"></path><path d="M0 496L22.8 492.8C45.7 489.7 91.3 483.3 137 484.5C182.7 485.7 228.3 494.3 274 499.5C319.7 504.7 365.3 506.3 411.2 502.5C457 498.7 503 489.3 548.8 483.7C594.7 478 640.3 476 686 477.3C731.7 478.7 777.3 483.3 823 484.5C868.7 485.7 914.3 483.3 937.2 482.2L960 481L960 541L937.2 541C914.3 541 868.7 541 823 541C777.3 541 731.7 541 686 541C640.3 541 594.7 541 548.8 541C503 541 457 541 411.2 541C365.3 541 319.7 541 274 541C228.3 541 182.7 541 137 541C91.3 541 45.7 541 22.8 541L0 541Z" fill="#141530"></path></svg>